<svg xmlns="http://www.w3.org/2000/svg" viewBox="0 0 128 128">
  <rect width="128" height="128" fill="#1B4F8A"/>
  <g transform="translate(25.9, 5.76) scale(1.059)"
     fill="#FFFFFF" stroke="#FFFFFF" stroke-width="2.5" stroke-linejoin="round" stroke-linecap="round">
    <path d="m 45.683292,4.7263328 c -2.575278,0.670278 -6.773334,2.2225 -9.172223,3.421945 C 24.587179,14.039667 11.428567,28.186057 7.9713447,38.734113 c -2.151945,6.702778 -2.010834,11.253612 0.458611,15.063612 1.9050003,2.928056 4.1980563,4.445001 6.9144453,4.621389 2.575278,0.176389 4.198056,-0.529166 6.244167,-2.645833 1.199444,-1.234722 2.645833,-3.880556 2.293055,-4.198056 -0.07056,-0.07055 -0.9525,0.493889 -1.905,1.27 -0.987777,0.776111 -2.257777,1.516945 -2.8575,1.622778 -1.340555,0.282222 -3.069166,-0.635 -3.774722,-1.940278 -1.834445,-3.563056 -0.388056,-11.923889 3.245556,-18.732501 5.150555,-9.595556 13.0175,-17.780001 21.13139,-21.942779 3.880556,-2.0108342 5.715,-2.5400002 7.020278,-2.0461112 0.9525,0.3527772 0.987778,0.4233332 0.776111,2.4694442 -0.388055,3.4925 -4.480278,15.169446 -9.948334,28.398613 -10.33639,24.941391 -13.476112,33.972502 -15.169445,43.744452 -0.776112,4.37444 -0.776112,9.41916 0,12.02972 1.658055,5.750277 8.925278,7.690547 13.581945,3.598327 1.481667,-1.305277 1.375833,-1.763887 -0.352778,-1.481657 -4.198056,0.67027 -5.256389,-2.36362 -3.880556,-10.93612 0.881945,-5.715 2.293056,-11.64166 4.268612,-18.168053 1.411111,-4.62139 2.257778,-6.949723 8.008056,-22.083891 4.550834,-11.994445 7.866945,-22.754168 9.454445,-30.515279 1.375834,-6.632223 0.846667,-9.8072232 -1.905,-11.3947232 -1.128889,-0.670278 -4.515556,-1.093612 -5.891389,-0.740834 z"/>
  </g>
</svg>