<?xml version="1.0" encoding="UTF-8" standalone="no"?>
<!-- Created with Inkscape (http://www.inkscape.org/) -->

<svg
   width="210mm"
   height="297mm"
   viewBox="0 0 210 297"
   version="1.1"
   id="svg1"
   inkscape:version="1.4.2 (f4327f4, 2025-05-13)"
   sodipodi:docname="logo-1a.svg"
   xmlns:inkscape="http://www.inkscape.org/namespaces/inkscape"
   xmlns:sodipodi="http://sodipodi.sourceforge.net/DTD/sodipodi-0.dtd"
   xmlns="http://www.w3.org/2000/svg"
   xmlns:svg="http://www.w3.org/2000/svg">
  <sodipodi:namedview
     id="namedview1"
     pagecolor="#ffffff"
     bordercolor="#000000"
     borderopacity="0.25"
     inkscape:showpageshadow="2"
     inkscape:pageopacity="0.0"
     inkscape:pagecheckerboard="0"
     inkscape:deskcolor="#d1d1d1"
     inkscape:document-units="mm"
     inkscape:zoom="0.79553171"
     inkscape:cx="396.5901"
     inkscape:cy="561.25984"
     inkscape:window-width="1600"
     inkscape:window-height="1137"
     inkscape:window-x="-8"
     inkscape:window-y="-8"
     inkscape:window-maximized="1"
     inkscape:current-layer="layer1" />
  <defs
     id="defs1" />
  <g
     inkscape:label="Layer 1"
     inkscape:groupmode="layer"
     id="layer1">
    <path
       d="m 68.631201,71.753583 c -1.62277,0.3175 -5.785553,2.54 -8.290275,4.40972 -7.584723,5.715 -14.78139,14.81667 -17.497779,22.04861 -1.023056,2.786947 -1.128889,3.492497 -1.164167,6.984997 0,3.21028 0.141111,4.23334 0.776111,5.89139 0.9525,2.39889 3.175001,4.69195 5.009445,5.25639 1.552223,0.45861 3.598334,0.17639 4.233334,-0.56444 0.352778,-0.45861 0.282222,-0.52917 -0.423334,-0.52917 -3.774722,0 -5.644444,-10.26583 -3.104444,-17.003887 0.9525,-2.57528 4.092222,-8.00805 6.596945,-11.35944 4.162778,-5.64445 10.900834,-11.50056 14.499164,-12.59417 1.30528,-0.38806 1.5875,-0.35278 2.08139,0.14111 0.35278,0.3175 0.56445,1.09361 0.52917,1.83444 -0.0706,1.55223 -2.61056,8.29028 -8.149168,21.41362 -9.136945,21.766387 -12.311945,31.855827 -12.946945,41.063327 -0.670278,10.16 3.986389,16.93334 12.558889,18.13278 4.586114,0.635 8.819444,-0.21166 22.471944,-4.55083 13.29973,-4.23334 30.797499,-8.92528 40.146119,-10.75972 13.86416,-2.75167 21.66055,-2.64584 23.495,0.24694 1.09361,1.76389 0.77611,5.11528 -0.84667,8.50194 -4.23333,8.92528 -12.87639,17.14501 -23.77722,22.57778 -15.52223,7.72584 -31.467779,8.00806 -42.474449,0.70556 -2.82222,-1.83445 -6.49111,-5.67972 -7.72583,-8.00806 -1.05834,-1.97555 -1.5875,-2.15194 -1.30528,-0.35277 0.52916,3.24555 3.31611,7.12611 7.09083,9.77194 6.17361,4.40972 13.82889,6.56167 23.106949,6.56167 9.10166,-0.0353 16.43944,-1.76389 25.43528,-6.06778 10.26583,-4.86833 19.01472,-12.3825 23.77722,-20.32 5.15056,-8.5725 3.4925,-16.43945 -3.91583,-18.76778 -6.59695,-2.08139 -19.96723,-0.81139 -37.32389,3.56306 -9.41917,2.36361 -16.439449,4.69194 -28.751389,9.48972 -13.15862,5.11528 -16.51001,5.99722 -19.93195,5.29166 -3.421945,-0.70555 -5.538612,-2.8575 -6.738056,-6.77333 -0.458612,-1.5875 -0.564445,-2.82222 -0.388056,-6.17361 0.388056,-8.81945 3.316111,-17.70945 14.640282,-44.203057 2.50472,-5.92667 5.00944,-12.10028 5.53861,-13.75833 2.46944,-7.9375 1.09361,-12.02973 -4.19806,-12.20611 -1.16416,-0.0353 -2.54,0 -3.03389,0.10583 z"
       id="path2"
       style="stroke-width:0.0352778" />
    <path
       d="m 123.87621,74.328863 c -2.68111,0.81139 -5.57389,4.02166 -7.79639,8.60777 -2.75167,5.75028 -11.43,30.973897 -12.3825,36.089167 -0.88195,4.79778 -0.10584,8.04334 1.86972,7.79639 0.81139,-0.10583 0.98778,-0.42333 1.72861,-3.10444 1.09361,-3.88056 5.22111,-12.20611 7.47889,-15.20472 4.33917,-5.67973 7.51417,-6.17362 7.02028,-1.05834 -0.49389,5.57389 -6.24417,16.29834 -10.86556,20.28473 -1.83444,1.5875 -5.3975,3.38666 -6.70278,3.38666 -0.52916,0 -1.34055,-0.35278 -1.86972,-0.74083 -1.19944,-0.9525 -1.48167,-0.70556 -0.77611,0.70555 0.88194,1.69334 2.36361,2.25778 5.32694,2.08139 3.21028,-0.21166 6.63223,-1.94027 10.05417,-5.11527 2.92806,-2.71639 5.11528,-6.13834 7.40834,-11.50056 3.03388,-7.12611 3.84527,-11.1125 2.89277,-13.68778 -0.52916,-1.34056 -2.36361,-3.033887 -3.59833,-3.316107 -2.61056,-0.56445 -7.09083,2.857497 -10.4775,8.078607 -0.91722,1.44639 -1.86972,2.89278 -2.11667,3.28083 -0.24694,0.35278 -0.17639,0.0353 0.10584,-0.74083 0.28222,-0.74083 1.30527,-3.4925 2.2225,-6.17361 5.32694,-14.957777 9.59555,-23.706667 13.44083,-27.340277 1.69333,-1.62278 1.79917,-1.79917 1.19944,-2.2225 -0.70555,-0.49389 -2.61055,-0.56444 -4.16277,-0.10583 z"
       id="path3"
       style="stroke-width:0.0352778" />
    <path
       d="m 143.94926,95.530803 c -2.29305,1.30528 -4.7625,4.515557 -7.44361,9.560277 -2.04611,3.95111 -2.36361,4.23333 -1.05833,0.98778 1.5875,-3.88056 1.5875,-5.53861 0.0353,-7.196667 -1.51695,-1.62278 -2.15195,-1.27 -2.78695,1.622777 -0.3175,1.41111 -1.19944,4.30389 -1.97555,6.45583 -2.18723,6.17361 -5.29167,17.07445 -5.53862,19.47334 -0.17638,1.97555 -0.14111,2.2225 0.70556,3.06916 1.72861,1.72862 3.77472,1.65806 3.77472,-0.10583 0,-4.30389 3.95111,-15.09889 7.44361,-20.32 1.86973,-2.78694 5.25639,-6.31472 6.80862,-7.12611 0.67027,-0.35278 1.48166,-0.45861 2.39888,-0.3175 1.30528,0.21166 1.37584,0.17639 1.905,-1.05834 0.635,-1.516937 0.42334,-3.245547 -0.49388,-4.374437 -0.70556,-0.88194 -2.78695,-1.23472 -3.77473,-0.67028 z"
       id="path5"
       style="stroke-width:0.0352778" />
    <path
       d="m 155.13232,98.494143 c -1.65806,0.84666 -3.10444,1.904997 -4.37444,3.280827 -2.89278,3.175 -7.23195,9.06639 -8.53723,11.67694 -3.42194,6.73806 -3.59833,13.12334 -0.45861,14.74612 1.55222,0.77611 4.1275,0.45861 5.715,-0.74084 1.41111,-1.09361 5.50334,-6.24416 7.44361,-9.41916 0.74084,-1.16417 1.37584,-2.04612 1.44639,-1.94028 0.0706,0.0705 -0.0353,0.88194 -0.28222,1.83444 -0.21167,0.9525 -0.42333,2.99861 -0.42333,4.58611 -0.0353,2.36362 0.10583,3.03389 0.74083,4.09223 0.91722,1.48166 2.64583,2.2225 4.30389,1.86972 2.32833,-0.52917 6.06778,-4.90361 7.23194,-8.53722 0.91723,-2.78695 0.45862,-2.92806 -0.84666,-0.3175 -2.8575,5.57389 -6.73806,7.37305 -6.73806,3.06916 0,-2.36361 0.74083,-5.11528 3.13972,-11.78278 1.19945,-3.28083 2.15195,-6.38527 2.15195,-6.91444 0,-1.09361 -1.09361,-1.79917 -2.75167,-1.79917 -0.84667,0 -1.16417,0.38806 -3.03389,3.95111 -2.50472,4.79778 -5.00944,8.74889 -8.53722,13.37028 -2.8575,3.77473 -3.88056,4.65667 -5.15056,4.48028 -1.12889,-0.14111 -1.23472,-2.11667 -0.28222,-5.32694 2.11667,-6.91445 8.21972,-15.69862 12.80584,-18.37973 1.34055,-0.811387 1.97555,-0.952497 3.10444,-0.811387 1.30528,0.17639 1.41111,0.10584 1.30528,-0.56444 -0.14111,-1.02306 -1.51695,-1.65806 -3.66889,-1.65806 -1.37583,0 -2.39889,0.3175 -4.30389,1.23473 z"
       id="path6"
       style="stroke-width:0.0352778" />
    <path
       d="m 98.440931,102.86858 c -2.32834,1.05833 -6.84389,6.35 -8.96056,10.51278 -0.42333,0.84667 -0.81139,1.51694 -0.88194,1.51694 -0.10584,0 0.14111,-1.05833 0.52916,-2.36361 0.88195,-3.06916 0.84667,-5.25639 -0.0353,-6.70278 -2.32834,-3.84527 -7.79639,0.17639 -12.87639,9.45445 -0.91723,1.62278 -1.55223,2.64583 -1.41112,2.25778 0.14112,-0.38806 0.635,-1.905 1.12889,-3.35139 1.19945,-3.45722 1.34056,-8.00806 0.3175,-9.13695 -0.70555,-0.81139 -2.89277,-1.37583 -3.38666,-0.88194 -0.14111,0.17639 -0.45861,1.72861 -0.67028,3.45722 -0.24695,1.97556 -0.9525,4.7625 -1.94028,7.58472 -6.314722,18.06223 -6.349999,18.13278 -6.349999,20.60223 -0.03528,2.29305 0.03528,2.46944 1.128889,3.45722 0.81139,0.74083 1.48167,1.02306 2.08139,0.9525 0.81139,-0.10583 0.98778,-0.38806 1.69333,-2.92806 2.68111,-9.66611 9.525,-23.56555 13.75834,-27.97528 1.83444,-1.86972 2.99861,-2.32833 2.99861,-1.19944 0,1.16417 -1.09361,4.37444 -3.35139,9.94833 -2.89278,7.12612 -3.88056,10.40695 -3.56306,12.10028 0.28222,1.44639 1.94028,3.06917 3.21028,3.06917 0.70556,0 0.9525,-0.35278 1.79917,-2.92806 2.61055,-7.90222 5.29166,-13.51139 9.03111,-19.01472 2.64583,-3.88056 5.92667,-6.985 5.92667,-5.60917 0,0.17639 -1.12889,2.99861 -2.50473,6.27945 -4.79777,11.46528 -5.82083,15.41639 -4.93889,19.05 0.52917,2.01083 1.76389,3.77472 3.24556,4.55083 1.76389,0.88195 2.11667,0.49389 1.48167,-1.65805 -0.45861,-1.5875 -0.49389,-2.25778 -0.14111,-4.19806 0.67027,-3.59833 2.04611,-8.07861 4.691939,-15.34583 1.34056,-3.70417 2.54,-7.51417 2.64583,-8.53723 0.17639,-1.62277 0.10584,-1.905 -0.70555,-2.71638 -1.09361,-1.09362 -2.01083,-1.12889 -3.951109,-0.24695 z"
       id="path10"
       style="stroke-width:0.0352778" />
  </g>
</svg>
