<?xml version="1.0" encoding="UTF-8" standalone="no"?>
<!-- Created with Inkscape (http://www.inkscape.org/) -->

<svg
   width="210mm"
   height="297mm"
   viewBox="0 0 210 297"
   version="1.1"
   id="svg1"
   inkscape:version="1.4.2 (f4327f4, 2025-05-13)"
   sodipodi:docname="logo-1c.svg"
   xmlns:inkscape="http://www.inkscape.org/namespaces/inkscape"
   xmlns:sodipodi="http://sodipodi.sourceforge.net/DTD/sodipodi-0.dtd"
   xmlns="http://www.w3.org/2000/svg"
   xmlns:svg="http://www.w3.org/2000/svg">
  <sodipodi:namedview
     id="namedview1"
     pagecolor="#ffffff"
     bordercolor="#000000"
     borderopacity="0.25"
     inkscape:showpageshadow="2"
     inkscape:pageopacity="0.0"
     inkscape:pagecheckerboard="0"
     inkscape:deskcolor="#d1d1d1"
     inkscape:document-units="mm"
     inkscape:zoom="0.79553171"
     inkscape:cx="396.5901"
     inkscape:cy="561.25984"
     inkscape:window-width="1600"
     inkscape:window-height="1137"
     inkscape:window-x="-8"
     inkscape:window-y="-8"
     inkscape:window-maximized="1"
     inkscape:current-layer="layer1" />
  <defs
     id="defs1" />
  <g
     inkscape:label="Layer 1"
     inkscape:groupmode="layer"
     id="layer1">
    <path
       d="m 97.033572,65.158101 c -10.93611,1.164167 -24.094725,6.173611 -34.678059,13.229167 -5.503334,3.66889 -8.43139,6.032501 -12.982224,10.406946 -7.972778,7.655278 -11.853334,14.287496 -11.853334,20.214166 0,3.52778 0.776112,5.64444 2.822223,7.69055 2.434167,2.43417 6.138334,3.175 7.725834,1.55223 0.493889,-0.45862 0.388055,-0.52917 -0.846667,-0.52917 -4.268611,0 -6.596945,-5.64445 -4.797778,-11.60639 2.716389,-8.99583 17.709445,-22.754165 32.914169,-30.197776 10.265836,-5.044723 20.073056,-7.231945 32.420274,-7.231945 12.45306,-0.03528 21.51945,3.316111 29.03362,10.65389 1.37583,1.305277 2.50472,2.328333 2.54,2.293055 0.0705,-0.03528 -0.14111,-0.599722 -0.45861,-1.234722 -0.67028,-1.411111 -4.97417,-5.538612 -7.72584,-7.373056 -4.97417,-3.386667 -12.13555,-6.244167 -18.37972,-7.337778 -3.88056,-0.705556 -11.64167,-0.9525 -15.733888,-0.529167 z"
       id="path13"
       style="stroke-width:0.0352778" />
    <path
       d="m 121.55163,80.045324 c -0.17639,0.246945 -0.45862,0.846667 -0.59973,1.340556 -0.14111,0.493889 -1.05833,2.151944 -2.04611,3.704167 -4.05694,6.385278 -11.92389,24.094723 -15.98083,35.983333 -1.55222,4.48028 -1.69334,5.25639 -1.72861,8.21972 0,3.175 0.0353,3.35139 0.98777,4.16278 0.52917,0.45861 1.12889,0.84667 1.27,0.84667 0.17639,0 0.49389,-0.98778 0.74084,-2.18723 1.23472,-6.42055 5.22111,-13.6525 11.43,-20.88444 1.94028,-2.25778 4.48028,-4.09222 5.67972,-4.09222 2.71639,0 1.94028,4.16277 -2.36361,12.87638 -3.73945,7.54945 -8.60778,13.22917 -13.0175,15.34584 -3.42195,1.5875 -5.75028,1.37583 -6.808608,-0.635 l -0.49389,-0.9525 -0.24695,0.91722 c -0.3175,1.34056 0.67028,3.10445 2.116668,3.70417 2.61056,1.09361 6.985,0.28222 11.07722,-2.04611 5.92667,-3.38667 11.7475,-11.7475 15.02834,-21.48417 1.48166,-4.48028 1.5875,-6.59694 0.42333,-8.78416 -1.41111,-2.64584 -4.09222,-3.42195 -6.91444,-1.97556 -2.39889,1.27 -6.06778,5.08 -8.11389,8.39611 -0.42334,0.74083 -0.84667,1.34055 -0.91723,1.34055 -0.42333,0 4.40973,-10.86555 10.72445,-24.165272 2.99861,-6.314723 3.4925,-8.325556 2.29306,-9.489723 -0.67028,-0.670278 -2.04612,-0.740833 -2.54,-0.141111 z"
       id="path14"
       style="stroke-width:0.0352778" />
    <path
       d="m 62.249679,88.547269 c -0.352778,0.458611 -0.3175,0.705556 0.176389,1.481667 1.375834,2.081389 -0.599722,8.290278 -7.267223,22.754164 -8.184445,17.74472 -10.583334,25.43528 -10.583334,33.83139 0,7.65528 2.540001,12.065 7.302501,12.62945 1.164167,0.10583 1.869722,0.0353 2.010833,-0.21167 0.141111,-0.21167 0.07056,-0.38806 -0.105833,-0.38806 -0.211667,0 -1.023056,-0.56444 -1.799167,-1.27 -1.975555,-1.79916 -2.8575,-4.30389 -2.8575,-8.39611 0,-7.02028 2.010833,-13.40555 9.454445,-30.19778 6.0325,-13.58194 8.925278,-22.048606 8.925278,-26.140828 0,-1.763889 -0.141111,-2.222501 -0.9525,-3.139723 -1.199444,-1.305278 -3.563055,-1.834444 -4.303889,-0.9525 z"
       id="path15"
       style="stroke-width:0.0352778" />
    <path
       d="m 144.4469,101.17671 c -1.905,1.16417 -4.72722,4.26862 -6.56166,7.16139 -0.91722,1.48167 -1.72861,2.68111 -1.76389,2.68111 -0.0706,0 0.21167,-0.74083 0.59972,-1.69333 0.45861,-0.9525 0.77611,-2.43417 0.77611,-3.4925 0.0353,-1.55222 -0.10583,-1.97555 -0.98778,-2.89278 -0.59972,-0.59972 -1.23472,-1.09361 -1.48166,-1.09361 -0.42334,0 -1.41111,2.61056 -2.25778,5.99722 -0.24695,0.88195 -1.97556,5.53861 -3.88056,10.40695 -5.22111,13.29972 -5.50333,14.74611 -3.175,16.33361 0.77611,0.49389 1.62278,0.77611 2.29306,0.70555 0.9525,-0.10583 1.05833,-0.24694 1.27,-1.76389 0.49389,-3.45722 3.28083,-11.50055 5.53861,-15.98083 1.79917,-3.63361 4.7625,-8.00805 7.05556,-10.40694 1.76389,-1.83445 2.18722,-2.11667 3.31611,-2.11667 0.74083,0 1.72861,0.17639 2.2225,0.42334 1.16416,0.52916 1.5875,0.10583 1.83444,-1.76389 0.17639,-1.19945 0.0353,-1.55223 -0.70555,-2.32834 -1.12889,-1.12889 -2.46945,-1.16416 -4.09223,-0.17639 z"
       id="path16"
       style="stroke-width:0.0352778" />
    <path
       d="m 157.04107,102.34088 c -7.76111,3.175 -17.25083,16.15722 -18.13278,24.83555 -0.38805,3.63362 0.9525,5.96195 3.63361,6.31473 1.62278,0.21166 2.99862,-0.38806 5.32695,-2.25778 1.72861,-1.41111 5.99722,-6.80861 7.54944,-9.56028 1.02306,-1.79917 1.65806,-2.46944 1.16417,-1.23472 -0.70555,1.83444 -1.5875,6.17361 -1.5875,7.90222 0,4.445 3.91583,6.84389 8.00806,4.86833 2.57527,-1.23472 6.10305,-5.99722 6.10305,-8.14916 0,-0.635 -0.21166,-0.49389 -0.91722,0.77611 -2.99861,5.25639 -7.90222,6.35 -7.90222,1.72861 0,-1.76389 1.37583,-6.42056 3.91583,-13.19389 l 2.11667,-5.64444 -0.91722,-0.77611 c -0.56445,-0.49389 -1.37584,-0.81139 -2.11667,-0.81139 -1.12889,0 -1.27,0.14111 -3.13972,3.45722 -3.91584,6.94972 -10.44223,15.94555 -12.84112,17.67417 -4.48027,3.175 -3.03388,-5.29167 2.32834,-13.54667 4.16278,-6.45583 8.43139,-9.91305 12.73528,-10.30111 1.27,-0.10583 2.32833,-0.0353 2.82222,0.24694 0.74083,0.38806 0.77611,0.35278 0.56444,-0.42333 -0.38805,-1.16417 -0.91722,-1.72861 -2.18722,-2.29305 -1.69333,-0.70556 -4.26861,-0.56445 -6.52639,0.38805 z"
       id="path17"
       style="stroke-width:0.0352778" />
    <path
       d="m 96.610232,106.36255 c -1.905,0.88194 -5.18583,4.51555 -8.53722,9.48972 -3.88055,5.715 -4.1275,5.96194 -2.64583,2.57527 1.09361,-2.54 1.27,-3.38666 1.30528,-5.57388 0,-2.39889 -0.0706,-2.64583 -0.98778,-3.45722 -2.08139,-1.79917 -4.86833,-0.635 -8.572502,3.59833 -2.822222,3.21027 -4.586111,5.67972 -6.6675,9.24278 -1.834445,3.13972 -2.54,3.70416 -1.128889,0.88194 1.164166,-2.25778 2.645833,-6.45583 3.280833,-9.24278 0.458611,-1.97555 0.458611,-2.32833 0,-3.06916 -0.9525,-1.44639 -4.797778,-1.5875 -4.797778,-0.17639 0,1.44638 -2.610556,9.34861 -5.256389,15.83972 -3.316111,8.255 -3.915834,10.19528 -3.915834,12.59417 0,1.44639 0.176389,1.97555 0.811389,2.57527 0.917223,0.88195 2.540001,1.51695 3.139723,1.30528 0.246944,-0.10583 0.846666,-1.48166 1.340555,-3.10444 1.128889,-3.84528 5.609167,-12.77056 9.207501,-18.37973 2.998611,-4.65666 7.690561,-10.01889 8.396111,-9.59555 0.77611,0.49389 0.0353,2.71639 -3.986389,11.78278 -1.446389,3.24555 -2.8575,6.73805 -3.175,7.79639 -1.27,4.33916 -0.352778,7.12611 2.398889,7.23194 l 1.340556,0.0353 1.199444,-3.35139 c 1.65806,-4.69195 5.00945,-11.32417 7.86695,-15.59278 2.75166,-4.1275 6.52638,-8.64306 8.11388,-9.77194 l 1.09362,-0.77611 v 0.84666 c 0,1.27 -0.59973,2.78695 -4.33917,11.00667 -3.81,8.39611 -4.48028,10.40694 -4.48028,13.26444 0,1.83445 0.10583,2.11667 1.09361,2.96334 0.81139,0.635 1.44639,0.88194 2.2225,0.81139 1.02306,-0.10584 1.09361,-0.21167 1.30528,-1.86973 0.35278,-2.75166 2.29306,-7.79639 7.33778,-19.26166 2.645828,-5.96195 2.892778,-8.36083 1.023048,-10.08945 -1.199438,-1.09361 -2.363608,-1.27 -3.986388,-0.52916 z"
       id="path18"
       style="stroke-width:0.0352778" />
    <path
       d="m 157.95829,138.8181 c -0.24694,0.14111 -1.30527,1.76389 -2.43416,3.59834 -2.89278,4.7625 -5.46806,8.07861 -9.70139,12.48833 -13.54667,14.11111 -28.75139,22.47195 -46.566668,25.68222 -1.65806,0.28223 -5.25639,0.45861 -9.70139,0.42334 -6.45583,0 -7.33778,-0.0706 -10.4775,-0.9525 -6.491113,-1.72861 -11.218336,-4.93889 -11.78278,-7.97278 -0.529167,-2.68111 1.128889,-5.99722 4.445,-8.96056 5.115278,-4.62139 16.33361,-10.12472 27.16389,-13.40555 5.432778,-1.65806 14.710828,-3.70417 19.720278,-4.37445 6.10306,-0.81139 13.51139,-0.49389 16.89806,0.70556 1.41111,0.49389 3.10444,1.30527 3.77472,1.79916 1.51694,1.16417 1.72861,1.16417 1.09361,-0.10583 -2.11667,-4.05694 -9.2075,-6.31472 -18.55611,-5.89139 -13.0175,0.56445 -32.561388,5.715 -44.520559,11.71222 -6.491111,3.24556 -12.664723,8.36084 -14.322778,11.81806 -0.987778,2.01083 -1.023056,4.86833 -0.105834,6.91444 1.305278,2.82223 6.385278,6.84389 11.359445,8.96056 9.913058,4.19806 24.059448,4.62139 36.336116,1.02306 18.94416,-5.53861 34.50166,-17.4625 44.41472,-34.07834 2.43417,-4.09222 4.26861,-8.71361 3.70417,-9.27806 -0.21167,-0.21166 -0.52917,-0.24694 -0.74084,-0.10583 z"
       id="path19"
       style="stroke-width:0.0352778" />
  </g>
</svg>
