<?xml version="1.0" encoding="UTF-8" standalone="no"?>
<!-- Created with Inkscape (http://www.inkscape.org/) -->

<svg
   width="210mm"
   height="297mm"
   viewBox="0 0 210 297"
   version="1.1"
   id="svg1"
   inkscape:version="1.4.2 (f4327f4, 2025-05-13)"
   sodipodi:docname="logo-2.svg"
   xmlns:inkscape="http://www.inkscape.org/namespaces/inkscape"
   xmlns:sodipodi="http://sodipodi.sourceforge.net/DTD/sodipodi-0.dtd"
   xmlns="http://www.w3.org/2000/svg"
   xmlns:svg="http://www.w3.org/2000/svg">
  <sodipodi:namedview
     id="namedview1"
     pagecolor="#ffffff"
     bordercolor="#000000"
     borderopacity="0.25"
     inkscape:showpageshadow="2"
     inkscape:pageopacity="0.0"
     inkscape:pagecheckerboard="0"
     inkscape:deskcolor="#d1d1d1"
     inkscape:document-units="mm"
     inkscape:zoom="0.79553171"
     inkscape:cx="396.5901"
     inkscape:cy="561.25984"
     inkscape:window-width="1600"
     inkscape:window-height="1137"
     inkscape:window-x="-8"
     inkscape:window-y="-8"
     inkscape:window-maximized="1"
     inkscape:current-layer="layer1" />
  <defs
     id="defs1" />
  <g
     inkscape:label="Layer 1"
     inkscape:groupmode="layer"
     id="layer1">
    <path
       d="m 45.683292,4.7263328 c -2.575278,0.670278 -6.773334,2.2225 -9.172223,3.421945 C 24.587179,14.039667 11.428567,28.186057 7.9713447,38.734113 c -2.151945,6.702778 -2.010834,11.253612 0.458611,15.063612 1.9050003,2.928056 4.1980563,4.445001 6.9144453,4.621389 2.575278,0.176389 4.198056,-0.529166 6.244167,-2.645833 1.199444,-1.234722 2.645833,-3.880556 2.293055,-4.198056 -0.07056,-0.07055 -0.9525,0.493889 -1.905,1.27 -0.987777,0.776111 -2.257777,1.516945 -2.8575,1.622778 -1.340555,0.282222 -3.069166,-0.635 -3.774722,-1.940278 -1.834445,-3.563056 -0.388056,-11.923889 3.245556,-18.732501 5.150555,-9.595556 13.0175,-17.780001 21.13139,-21.942779 3.880556,-2.0108342 5.715,-2.5400002 7.020278,-2.0461112 0.9525,0.3527772 0.987778,0.4233332 0.776111,2.4694442 -0.388055,3.4925 -4.480278,15.169446 -9.948334,28.398613 -10.33639,24.941391 -13.476112,33.972502 -15.169445,43.744452 -0.776112,4.37444 -0.776112,9.41916 0,12.02972 1.658055,5.750277 8.925278,7.690547 13.581945,3.598327 1.481667,-1.305277 1.375833,-1.763887 -0.352778,-1.481657 -4.198056,0.67027 -5.256389,-2.36362 -3.880556,-10.93612 0.881945,-5.715 2.293056,-11.64166 4.268612,-18.168053 1.411111,-4.62139 2.257778,-6.949723 8.008056,-22.083891 4.550834,-11.994445 7.866945,-22.754168 9.454445,-30.515279 1.375834,-6.632223 0.846667,-9.8072232 -1.905,-11.3947232 -1.128889,-0.670278 -4.515556,-1.093612 -5.891389,-0.740834 z"
       id="path880"
       style="stroke-width:0.0352778" />
    <path
       d="m 131.4083,9.0302218 c -8.18445,2.8222232 -12.87639,10.1952792 -22.01334,34.6075032 -1.72861,4.586111 -3.77472,10.371667 -4.62139,12.911667 -0.81139,2.504722 -1.65805,4.903612 -1.83444,5.291667 -0.70556,1.305278 -4.656668,6.667501 -6.70278,9.031114 -3.069166,3.56305 -5.573889,4.7625 -5.573889,2.64583 0,-1.09361 1.5875,-5.644444 4.7625,-13.440833 4.268612,-10.548056 4.727219,-13.123334 2.963334,-15.980834 -1.375833,-2.293056 -4.7625,-2.751667 -7.725834,-1.093611 -1.446389,0.811389 -7.196667,7.020278 -9.666112,10.442222 -0.811388,1.128889 -2.398889,3.563056 -3.4925,5.397501 -1.093611,1.834444 -2.010833,3.139722 -2.010833,2.892778 0,-0.282222 0.846667,-2.716389 1.905,-5.468056 2.575278,-6.843889 2.681111,-7.161389 2.681111,-9.207501 0,-2.469444 -0.917222,-4.056944 -2.8575,-5.08 -1.799167,-0.9525 -3.598334,-0.846667 -5.468056,0.282222 -2.998611,1.869723 -9.560278,9.807223 -13.581945,16.510001 -1.199445,1.975556 -2.257778,3.563056 -2.293056,3.4925 -0.211667,-0.211666 1.834445,-5.926667 3.563056,-9.948334 2.116667,-4.938889 2.434167,-7.373056 1.199444,-9.172222 -0.458611,-0.670278 -1.27,-1.411112 -1.799166,-1.622778 -1.128889,-0.458611 -3.210278,-0.176389 -3.774723,0.529167 -0.211666,0.246944 -0.846667,2.116666 -1.446389,4.1275 -0.564444,2.010833 -2.716389,8.043334 -4.7625,13.370278 -4.480278,11.57111 -5.256389,14.18167 -5.044723,17.00389 0.176389,2.39889 0.9525,3.70417 2.892778,4.62139 2.116667,1.05833 2.822223,0.67028 3.951112,-2.29306 2.293055,-6.0325 5.750278,-12.453053 10.512778,-19.508609 2.54,-3.774722 8.607778,-10.054167 9.70139,-10.054167 1.340555,0 1.093611,1.023056 -2.434167,10.759723 -1.199445,3.280834 -2.786945,7.655278 -3.527778,9.70139 -1.622778,4.445003 -1.975556,6.561663 -1.446389,8.219723 0.846667,2.57528 4.092222,4.26861 5.3975,2.82222 0.3175,-0.35278 1.164167,-2.08139 1.869723,-3.81 2.822222,-6.879166 7.584722,-15.345833 11.077222,-19.649722 4.092223,-5.009445 7.231945,-8.043334 8.396112,-8.043334 1.058333,0 0.881945,0.599722 -4.1275,14.287501 -2.963334,8.113885 -3.386667,9.983615 -2.892778,12.841115 0.282222,1.76389 0.635,2.50472 1.481667,3.35139 0.9525,0.9525 1.305277,1.09361 2.928055,1.05833 2.575278,-0.0706 4.162778,-0.98778 7.408334,-4.26861 2.892778,-2.92806 4.833056,-5.43278 5.538612,-7.161391 0.67028,-1.658056 1.05833,-1.234723 0.49389,0.564444 -1.411113,4.727227 -0.84667,8.607777 1.41111,10.018887 1.55222,0.91723 1.83444,0.91723 3.28083,-0.35278 l 1.23473,-1.09361 1.19944,1.05834 c 2.50472,2.2225 5.715,2.18722 10.26583,-0.0706 8.29028,-4.19805 15.69861,-13.617221 18.62667,-23.706667 1.34055,-4.621389 1.51694,-8.255 0.59972,-11.359445 -0.81139,-2.610555 -1.65806,-3.633611 -3.66889,-4.515556 -3.35138,-1.375833 -8.32555,0.282223 -12.55889,4.162779 -2.18722,2.046111 -5.25638,5.891389 -7.3025,9.2075 -0.9525,1.516945 -1.79916,2.610556 -1.83444,2.434167 -0.0705,-0.211667 0.635,-2.081389 1.5875,-4.198056 0.9525,-2.116667 2.82222,-6.385278 4.1275,-9.489723 1.30528,-3.104444 3.98639,-8.995834 5.96195,-13.052778 6.20888,-12.841112 7.90221,-15.557501 10.33638,-16.580557 1.5875,-0.670278 1.76389,-1.340556 0.77611,-2.8222222 -0.9525,-1.411112 -1.23472,-1.446389 -3.66888,-0.599723 z m -2.64584,37.4650032 c 0.91723,0.493889 1.48167,2.751667 1.19945,5.009445 -0.9525,7.972778 -8.71361,20.955003 -14.605,24.376943 -0.9525,0.52917 -2.43417,1.02306 -3.63361,1.16417 -1.83445,0.21167 -2.11667,0.14111 -2.92806,-0.59972 -0.77611,-0.70556 -0.84667,-1.02306 -0.635,-2.2225 0.42333,-2.57528 2.54,-8.537226 4.16278,-11.782782 3.59833,-7.161389 6.52639,-11.183056 10.01889,-13.793612 3.35139,-2.469444 4.86833,-2.963333 6.42055,-2.151944 z"
       id="path881"
       style="stroke-width:0.0352778" />
    <path
       d="m 149.04718,32.701613 c -3.38666,2.046111 -5.67972,7.478889 -4.26861,10.16 0.28222,0.599723 0.9525,1.411112 1.44639,1.799167 l 0.88194,0.705556 -3.21027,5.573889 c -1.76389,3.033889 -3.59834,6.208889 -4.1275,6.985001 -1.30528,2.116666 -5.00945,9.031111 -5.00945,9.419167 0,0.635 1.05833,0.282222 2.25778,-0.740834 0.67028,-0.599722 1.83444,-2.010833 2.57528,-3.104444 1.48166,-2.257778 9.87778,-16.121946 10.05416,-16.651112 0.14112,-0.458612 4.86834,1.023055 4.86834,1.552222 0,0.246944 -0.14111,0.564444 -0.3175,0.776111 -0.17639,0.176389 -0.98778,1.5875 -1.79917,3.139722 -7.47889,14.14639 -8.50194,16.580557 -8.50194,20.637505 -0.0353,4.16277 1.55222,6.63222 4.40972,6.94972 3.175,0.38806 7.83167,-2.82222 11.85333,-8.07861 1.23473,-1.62278 2.32834,-3.033891 2.43417,-3.175002 0.10583,-0.141111 0.21167,1.199444 0.21167,2.998612 0,5.64444 1.44639,8.00805 4.93889,8.00805 1.55222,0 2.18722,-0.21166 4.02166,-1.41111 3.31611,-2.15194 7.12611,-6.42055 10.58334,-11.923886 0.67027,-1.023055 1.27,-1.799167 1.34055,-1.693333 0.0706,0.07055 0,0.740833 -0.21166,1.481666 -1.09362,4.127501 -0.74084,8.854723 0.77611,11.112503 1.905,2.78694 3.98639,3.21028 7.44361,1.51694 4.1275,-2.01083 11.1125,-11.641665 10.72444,-14.746109 -0.0705,-0.529167 -0.24694,-0.9525 -0.45861,-0.987778 -0.17639,0 -1.76389,1.905 -3.45722,4.233333 -3.21028,4.445004 -4.79778,5.997224 -6.27945,6.138334 -0.81138,0.10583 -0.84666,0 -0.9525,-2.01083 -0.28222,-5.256393 2.01084,-13.08806 6.45584,-21.872227 1.65805,-3.280833 2.99861,-6.173611 2.99861,-6.385278 0,-0.564445 -3.28083,-2.257778 -4.37444,-2.257778 -0.67028,0 -1.16417,0.352778 -1.90501,1.411111 -0.52916,0.740834 -1.05833,1.375834 -1.16416,1.411111 -0.14111,0 -1.16417,-0.740833 -2.25778,-1.693333 l -2.04611,-1.658056 h -3.06917 c -2.89278,0 -3.21028,0.07056 -6.13833,1.516945 -3.4925,1.728611 -7.12611,4.903611 -9.56028,8.360834 -0.81139,1.164166 -2.46944,4.021667 -3.66889,6.35 -2.15194,4.233334 -6.87917,11.006667 -9.66611,13.82889 -1.72861,1.799171 -4.33917,2.963331 -4.86833,2.187221 -0.42334,-0.67028 -0.21167,-1.55222 1.69333,-6.314721 2.11667,-5.362223 5.25639,-11.888612 7.23194,-15.169446 1.97556,-3.245556 2.08139,-3.704167 1.27,-5.362222 l -0.635,-1.305278 -2.36361,0.176389 c -2.2225,0.141111 -2.57528,0.07055 -4.51555,-0.987778 -2.50473,-1.411111 -2.82223,-2.187223 -1.83445,-4.691945 1.23472,-3.139722 1.30528,-3.704167 0.77611,-4.938889 -0.81139,-1.975556 -2.64583,-2.469445 -4.58611,-1.27 z m 40.14612,12.100278 c 0.91722,1.058334 0.74083,2.928056 -0.59973,6.173612 -2.39889,5.785556 -7.05555,12.700001 -11.78278,17.497779 -3.35138,3.421941 -4.69194,4.303891 -5.67972,3.810001 -0.98778,-0.52917 -1.19944,-1.552223 -0.91722,-4.233335 0.74083,-7.161389 6.87917,-18.556112 12.02972,-22.330834 2.8575,-2.116667 5.60917,-2.469445 6.94973,-0.917223 z"
       id="path882"
       style="stroke-width:0.0352778" />
    <path
       d="m 135.11246,87.099953 c -12.48833,0.84666 -28.15166,3.175 -41.09861,6.13833 -14.993056,3.42194 -27.763613,7.831667 -39.017224,13.511387 -7.655279,3.84528 -8.466668,4.93889 -2.293056,3.06917 10.089445,-3.03389 31.115002,-8.81945 37.076947,-10.195277 22.754163,-5.18584 35.877503,-6.73806 56.091663,-6.70278 11.18306,0.0353 13.29972,0.10583 17.70945,0.77611 6.80861,1.05833 10.795,2.11667 15.83972,4.26861 2.36361,0.98778 4.72722,1.79917 5.25639,1.79917 2.75167,0 3.10444,-2.01083 0.77611,-4.33917 -1.83444,-1.83444 -4.09222,-3.06916 -8.5725,-4.69194 -4.55083,-1.62278 -8.11389,-2.43417 -13.89944,-3.13972 -5.75028,-0.67028 -21.16667,-0.9525 -27.86945,-0.49389 z"
       id="path883"
       style="stroke-width:0.0352778" />
  </g>
</svg>
